<?xml version="1.0" encoding="UTF-8" standalone="no"?>
<!DOCTYPE svg PUBLIC "-//W3C//DTD SVG 1.1//EN" "http://www.w3.org/Graphics/SVG/1.1/DTD/svg11.dtd">
<svg xmlns="http://www.w3.org/2000/svg" xmlns:xlink="http://www.w3.org/1999/xlink" version="1.1" width="384pt" height="548pt" viewBox="0 0 384 548">
<g enable-background="new">
<g>
<path transform="matrix(1,0,0,-1,0,548)" d="M 0 0 L 384 0 L 384 548 L 0 548 Z " fill="#ffffff"/>
<path transform="matrix(1,0,0,-1,0,548)" stroke-width="2" stroke-linecap="butt" stroke-linejoin="round" fill="none" stroke="#57d96c" d="M 151 40 L 121 40 C 115 40 109 34 109 28 L 109 16 C 109 10 115 4 121 4 L 151 4 C 157 4 163 10 163 16 L 163 28 C 163 34 157 40 151 40 "/>
<text xml:space="preserve" transform="matrix(1 0 -0 1 0 548)" font-size="9.999756" font-family="DejaVuSans"><tspan y="-19.5" x="130.5 136.48987 138.72982">all</tspan></text>
<path transform="matrix(1,0,0,-1,0,548)" stroke-width="2" stroke-linecap="butt" stroke-linejoin="round" fill="none" stroke="#d95757" d="M 179 112 L 93 112 C 87 112 81 106 81 100 L 81 88 C 81 82 87 76 93 76 L 179 76 C 185 76 191 82 191 88 L 191 100 C 191 106 185 112 179 112 "/>
<text xml:space="preserve" transform="matrix(1 0 -0 1 0 548)" font-size="9.999756" font-family="DejaVuSans"><tspan y="-91.5" x="89 94.999858 100.23973 106.22958 108.469539 114.46938 120.459239 124.209148 130.209 135.45888 145.19864 151.1985 157.18836 163.1782 165.41815 171.41802 177.40787">evaluate_mappings</tspan></text>
<path transform="matrix(1,0,0,-1,0,548)" stroke-width="2" stroke-linecap="butt" stroke-linejoin="round" fill="none" stroke="#c0c0c0" d="M 136 75.695 C 136 67.984 136 58.711 136 50.113 "/>
<path transform="matrix(1,0,0,-1,0,548)" d="M 139.5 50.105 L 136 40.105 L 132.5 50.105 Z M 139.5 50.105 " fill="#c0c0c0"/>
<path transform="matrix(1,0,0,-1,0,548)" stroke-width="2" stroke-linecap="butt" stroke-linejoin="round" fill="none" stroke="#c0c0c0" d="M 139.5 50.105 L 136 40.105 L 132.5 50.105 Z M 139.5 50.105 "/>
<path transform="matrix(1,0,0,-1,0,548)" stroke-width="2" stroke-linecap="butt" stroke-linejoin="round" fill="none" stroke="#71d957" d="M 211.5 472 L 108.5 472 C 102.5 472 96.5 466 96.5 460 L 96.5 448 C 96.5 442 102.5 436 108.5 436 L 211.5 436 C 217.5 436 223.5 442 223.5 448 L 223.5 460 C 223.5 466 217.5 472 211.5 472 "/>
<text xml:space="preserve" transform="matrix(1 0 -0 1 0 548)" font-size="9.999756" font-family="DejaVuSans"><tspan y="-451.5" x="104.5 109.739879 111.97983 117.97968 123.21956 128.45943 130.69937 133.6993 138.93917 144.18904 147.93895 153.93881 159.92868 165.91854 171.1584 176.40828 181.65814 185.40805 191.39792 196.64778 202.64765 208.6375">classify_reads_kraken2</tspan></text>
<path transform="matrix(1,0,0,-1,0,548)" stroke-width="2" stroke-linecap="butt" stroke-linejoin="round" fill="none" stroke="#c0c0c0" d="M 116.961 435.816 C 70.785 414.203 4 372.344 4 311 L 4 237 C 4 194.965 8.465 179.758 36 148 C 47.406 134.844 62.895 124.449 78.277 116.473 "/>
<path transform="matrix(1,0,0,-1,0,548)" d="M 79.852 119.602 L 87.289 112.059 L 76.77 113.316 Z M 79.852 119.602 " fill="#c0c0c0"/>
<path transform="matrix(1,0,0,-1,0,548)" stroke-width="2" stroke-linecap="butt" stroke-linejoin="round" fill="none" stroke="#c0c0c0" d="M 79.852 119.602 L 87.289 112.059 L 76.77 113.316 Z M 79.852 119.602 "/>
<path transform="matrix(1,0,0,-1,0,548)" stroke-width="2" stroke-linecap="butt" stroke-linejoin="round" fill="none" stroke="#5783d9" d="M 245.5 328 L 136.5 328 C 130.5 328 124.5 322 124.5 316 L 124.5 304 C 124.5 298 130.5 292 136.5 292 L 245.5 292 C 251.5 292 257.5 298 257.5 304 L 257.5 316 C 257.5 322 251.5 328 245.5 328 "/>
<text xml:space="preserve" transform="matrix(1 0 -0 1 0 548)" font-size="9.999756" font-family="DejaVuSans"><tspan y="-307.5" x="132.5 138.49987 143.73973 147.48964 151.23955 157.22942 162.46929 166.2192 171.46907 181.20883 183.45877 188.69864 192.44855 198.4484 204.43825 206.67819 212.66806 214.908 220.15789 223.90779 229.89766 235.14752 237.38747 243.37732">extract_microbial_taxids</tspan></text>
<path transform="matrix(1,0,0,-1,0,548)" stroke-width="2" stroke-linecap="butt" stroke-linejoin="round" fill="none" stroke="#c0c0c0" d="M 150.18 435.777 C 141.098 417.477 130.352 387.941 140 364 C 144.348 353.211 152.062 343.387 160.195 335.207 "/>
<path transform="matrix(1,0,0,-1,0,548)" d="M 162.789 337.57 L 167.695 328.18 L 158.004 332.465 Z M 162.789 337.57 " fill="#c0c0c0"/>
<path transform="matrix(1,0,0,-1,0,548)" stroke-width="2" stroke-linecap="butt" stroke-linejoin="round" fill="none" stroke="#c0c0c0" d="M 162.789 337.57 L 167.695 328.18 L 158.004 332.465 Z M 162.789 337.57 "/>
<path transform="matrix(1,0,0,-1,0,548)" stroke-width="2" stroke-linecap="butt" stroke-linejoin="round" fill="none" stroke="#d9b457" d="M 236.5 400 L 161.5 400 C 155.5 400 149.5 394 149.5 388 L 149.5 376 C 149.5 370 155.5 364 161.5 364 L 236.5 364 C 242.5 364 248.5 370 248.5 376 L 248.5 388 C 248.5 394 242.5 400 236.5 400 "/>
<text xml:space="preserve" transform="matrix(1 0 -0 1 0 548)" font-size="9.999756" font-family="DejaVuSans"><tspan y="-379.5" x="157.5 163.48986 169.4797 171.72965 177.7195 183.70937 189.69922 194.9491 200.94895 206.93881 210.68872 216.67859 222.66844 228.65831 233.89818">unload_database</tspan></text>
<path transform="matrix(1,0,0,-1,0,548)" stroke-width="2" stroke-linecap="butt" stroke-linejoin="round" fill="none" stroke="#c0c0c0" d="M 169.641 435.695 C 174.129 427.645 179.559 417.895 184.523 408.984 "/>
<path transform="matrix(1,0,0,-1,0,548)" d="M 187.66 410.543 L 189.469 400.105 L 181.547 407.137 Z M 187.66 410.543 " fill="#c0c0c0"/>
<path transform="matrix(1,0,0,-1,0,548)" stroke-width="2" stroke-linecap="butt" stroke-linejoin="round" fill="none" stroke="#c0c0c0" d="M 187.66 410.543 L 189.469 400.105 L 181.547 407.137 Z M 187.66 410.543 "/>
<path transform="matrix(1,0,0,-1,0,548)" stroke-width="2" stroke-linecap="butt" stroke-linejoin="round" fill="none" stroke="#d98657" d="M 339.5 256 L 232.5 256 C 226.5 256 220.5 250 220.5 244 L 220.5 232 C 220.5 226 226.5 220 232.5 220 L 339.5 220 C 345.5 220 351.5 226 351.5 232 L 351.5 244 C 351.5 250 345.5 256 339.5 256 "/>
<text xml:space="preserve" transform="matrix(1 0 -0 1 0 548)" font-size="9.999756" font-family="DejaVuSans"><tspan y="-235.5" x="228.5 234.49987 239.73973 243.48964 247.23955 253.22942 258.46928 262.21919 267.46907 277.20884 279.45878 284.69865 288.44856 294.44844 300.43827 302.6782 308.66804 310.90797 316.15785 319.90776 325.9076 331.89744 337.88728">extract_microbial_reads</tspan></text>
<path transform="matrix(1,0,0,-1,0,548)" stroke-width="2" stroke-linecap="butt" stroke-linejoin="round" fill="none" stroke="#c0c0c0" d="M 210.398 435.898 C 227.66 427.633 245.5 415.957 257 400 C 285.695 360.184 288.863 300.766 287.895 266.348 "/>
<path transform="matrix(1,0,0,-1,0,548)" d="M 291.379 265.949 L 287.461 256.109 L 284.387 266.246 Z M 291.379 265.949 " fill="#c0c0c0"/>
<path transform="matrix(1,0,0,-1,0,548)" stroke-width="2" stroke-linecap="butt" stroke-linejoin="round" fill="none" stroke="#c0c0c0" d="M 291.379 265.949 L 287.461 256.109 L 284.387 266.246 Z M 291.379 265.949 "/>
<path transform="matrix(1,0,0,-1,0,548)" stroke-width="2" stroke-linecap="butt" stroke-linejoin="round" fill="none" stroke="#57b2d9" d="M 212 544 L 108 544 C 102 544 96 538 96 532 L 96 520 C 96 514 102 508 108 508 L 212 508 C 218 508 224 514 224 520 L 224 532 C 224 538 218 544 212 544 "/>
<text xml:space="preserve" transform="matrix(1 0 -0 1 0 548)" font-size="9.999756" font-family="DejaVuSans"><tspan y="-523.5" x="104 106.23995 112.229808 118.22966 124.21951 129.46939 135.45925 141.44911 145.19902 151.18889 157.18874 163.1786 168.41847 174.41834 179.66822 183.41812 189.40798 194.65785 199.89772 205.88758">load_database_to_shm</tspan></text>
<path transform="matrix(1,0,0,-1,0,548)" stroke-width="2" stroke-linecap="butt" stroke-linejoin="round" fill="none" stroke="#c0c0c0" d="M 160 507.695 C 160 499.984 160 490.711 160 482.113 "/>
<path transform="matrix(1,0,0,-1,0,548)" d="M 163.5 482.105 L 160 472.105 L 156.5 482.105 Z M 163.5 482.105 " fill="#c0c0c0"/>
<path transform="matrix(1,0,0,-1,0,548)" stroke-width="2" stroke-linecap="butt" stroke-linejoin="round" fill="none" stroke="#c0c0c0" d="M 163.5 482.105 L 160 472.105 L 156.5 482.105 Z M 163.5 482.105 "/>
<path transform="matrix(1,0,0,-1,0,548)" stroke-width="2" stroke-linecap="butt" stroke-linejoin="round" fill="none" stroke="#57d9c9" d="M 102.5 184 L 57.5 184 C 51.5 184 45.5 178 45.5 172 L 45.5 160 C 45.5 154 51.5 148 57.5 148 L 102.5 148 C 108.5 148 114.5 154 114.5 160 L 114.5 172 C 114.5 178 108.5 184 102.5 184 "/>
<text xml:space="preserve" transform="matrix(1 0 -0 1 0 548)" font-size="9.999756" font-family="DejaVuSans"><tspan y="-163.5" x="53.5 58.739877 64.73973 70.72958 75.979457 78.219409 84.21926 90.209117 96.19897 99.948879">seq_length</tspan></text>
<path transform="matrix(1,0,0,-1,0,548)" stroke-width="2" stroke-linecap="butt" stroke-linejoin="round" fill="none" stroke="#c0c0c0" d="M 93.844 147.695 C 100.488 139.391 108.578 129.277 115.887 120.141 "/>
<path transform="matrix(1,0,0,-1,0,548)" d="M 118.801 122.098 L 122.316 112.105 L 113.336 117.727 Z M 118.801 122.098 " fill="#c0c0c0"/>
<path transform="matrix(1,0,0,-1,0,548)" stroke-width="2" stroke-linecap="butt" stroke-linejoin="round" fill="none" stroke="#c0c0c0" d="M 118.801 122.098 L 122.316 112.105 L 113.336 117.727 Z M 118.801 122.098 "/>
<path transform="matrix(1,0,0,-1,0,548)" stroke-width="2" stroke-linecap="butt" stroke-linejoin="round" fill="none" stroke="#a0d957" d="M 151.5 256 L 44.5 256 C 38.5 256 32.5 250 32.5 244 L 32.5 232 C 32.5 226 38.5 220 44.5 220 L 151.5 220 C 157.5 220 163.5 226 163.5 232 L 163.5 244 C 163.5 250 157.5 256 151.5 256 "/>
<text xml:space="preserve" transform="matrix(1 0 -0 1 0 548)" font-size="9.999756" font-family="DejaVuSans"><tspan y="-235.5" x="40.5 46.489854 52.479707 54.72965 56.969594 62.959447 68.20931 74.199169 80.19901 86.93885 90.68876 92.92871 98.928569 104.91843 110.1683 116.16815 122.158008 125.90791 131.89778 137.88764 143.8775 149.11737">build_bowtie2_database</tspan></text>
<path transform="matrix(1,0,0,-1,0,548)" stroke-width="2" stroke-linecap="butt" stroke-linejoin="round" fill="none" stroke="#c0c0c0" d="M 93.551 219.695 C 91.547 211.898 89.129 202.508 86.898 193.828 "/>
<path transform="matrix(1,0,0,-1,0,548)" d="M 90.277 192.918 L 84.398 184.105 L 83.5 194.66 Z M 90.277 192.918 " fill="#c0c0c0"/>
<path transform="matrix(1,0,0,-1,0,548)" stroke-width="2" stroke-linecap="butt" stroke-linejoin="round" fill="none" stroke="#c0c0c0" d="M 90.277 192.918 L 84.398 184.105 L 83.5 194.66 Z M 90.277 192.918 "/>
<path transform="matrix(1,0,0,-1,0,548)" stroke-width="2" stroke-linecap="butt" stroke-linejoin="round" fill="none" stroke="#ced957" d="M 239.5 184 L 144.5 184 C 138.5 184 132.5 178 132.5 172 L 132.5 160 C 132.5 154 138.5 148 144.5 148 L 239.5 148 C 245.5 148 251.5 154 251.5 160 L 251.5 172 C 251.5 178 245.5 184 239.5 184 "/>
<text xml:space="preserve" transform="matrix(1 0 -0 1 0 548)" font-size="9.999756" font-family="DejaVuSans"><tspan y="-163.5" x="140.5 150.23976 156.23963 162.22948 167.47936 177.21912 179.46906 184.71894 188.46884 194.4587 200.44855 202.68849 208.67836 210.9283 216.17818 219.91808 225.91794 231.9078 237.90766">map_microbial_reads</tspan></text>
<path transform="matrix(1,0,0,-1,0,548)" stroke-width="2" stroke-linecap="butt" stroke-linejoin="round" fill="none" stroke="#c0c0c0" d="M 121.234 219.695 C 133.188 210.797 147.922 199.824 160.848 190.199 "/>
<path transform="matrix(1,0,0,-1,0,548)" d="M 163.102 192.883 L 169.031 184.105 L 158.922 187.27 Z M 163.102 192.883 " fill="#c0c0c0"/>
<path transform="matrix(1,0,0,-1,0,548)" stroke-width="2" stroke-linecap="butt" stroke-linejoin="round" fill="none" stroke="#c0c0c0" d="M 163.102 192.883 L 169.031 184.105 L 158.922 187.27 Z M 163.102 192.883 "/>
<path transform="matrix(1,0,0,-1,0,548)" stroke-width="2" stroke-linecap="butt" stroke-linejoin="round" fill="none" stroke="#57d99a" d="M 368 184 L 282 184 C 276 184 270 178 270 172 L 270 160 C 270 154 276 148 282 148 L 368 148 C 374 148 380 154 380 160 L 380 172 C 380 178 374 184 368 184 "/>
<text xml:space="preserve" transform="matrix(1 0 -0 1 0 548)" font-size="9.999756" font-family="DejaVuSans"><tspan y="-163.5" x="278 283.98985 289.2297 294.47959 300.46943 305.7093 310.94917 313.1991 319.18898 325.1788 331.17866 337.1685 343.16835 349.15818 355.14805 364.88783">accession2genome</tspan></text>
<path transform="matrix(1,0,0,-1,0,548)" stroke-width="2" stroke-linecap="butt" stroke-linejoin="round" fill="none" stroke="#c0c0c0" d="M 278.766 147.875 C 252.469 138.137 219.355 125.871 191.641 115.609 "/>
<path transform="matrix(1,0,0,-1,0,548)" d="M 192.676 112.258 L 182.086 112.066 L 190.246 118.824 Z M 192.676 112.258 " fill="#c0c0c0"/>
<path transform="matrix(1,0,0,-1,0,548)" stroke-width="2" stroke-linecap="butt" stroke-linejoin="round" fill="none" stroke="#c0c0c0" d="M 192.676 112.258 L 182.086 112.066 L 190.246 118.824 Z M 192.676 112.258 "/>
<path transform="matrix(1,0,0,-1,0,548)" stroke-width="2" stroke-linecap="butt" stroke-linejoin="round" fill="none" stroke="#c0c0c0" d="M 178.156 147.695 C 171.512 139.391 163.422 129.277 156.113 120.141 "/>
<path transform="matrix(1,0,0,-1,0,548)" d="M 158.664 117.727 L 149.684 112.105 L 153.199 122.098 Z M 158.664 117.727 " fill="#c0c0c0"/>
<path transform="matrix(1,0,0,-1,0,548)" stroke-width="2" stroke-linecap="butt" stroke-linejoin="round" fill="none" stroke="#c0c0c0" d="M 158.664 117.727 L 149.684 112.105 L 153.199 122.098 Z M 158.664 117.727 "/>
<path transform="matrix(1,0,0,-1,0,548)" stroke-width="2" stroke-linecap="butt" stroke-linejoin="round" fill="none" stroke="#c0c0c0" d="M 191.121 291.871 C 191.293 267.672 191.605 223.211 191.809 194.395 "/>
<path transform="matrix(1,0,0,-1,0,548)" d="M 195.309 194.215 L 191.879 184.188 L 188.309 194.164 Z M 195.309 194.215 " fill="#c0c0c0"/>
<path transform="matrix(1,0,0,-1,0,548)" stroke-width="2" stroke-linecap="butt" stroke-linejoin="round" fill="none" stroke="#c0c0c0" d="M 195.309 194.215 L 191.879 184.188 L 188.309 194.164 Z M 195.309 194.215 "/>
<path transform="matrix(1,0,0,-1,0,548)" stroke-width="2" stroke-linecap="butt" stroke-linejoin="round" fill="none" stroke="#c0c0c0" d="M 214.484 291.695 C 226.562 282.797 241.453 271.824 254.516 262.199 "/>
<path transform="matrix(1,0,0,-1,0,548)" d="M 256.812 264.855 L 262.785 256.105 L 252.66 259.219 Z M 256.812 264.855 " fill="#c0c0c0"/>
<path transform="matrix(1,0,0,-1,0,548)" stroke-width="2" stroke-linecap="butt" stroke-linejoin="round" fill="none" stroke="#c0c0c0" d="M 256.812 264.855 L 262.785 256.105 L 252.66 259.219 Z M 256.812 264.855 "/>
<path transform="matrix(1,0,0,-1,0,548)" stroke-width="2" stroke-linecap="butt" stroke-linejoin="round" fill="none" stroke="#c0c0c0" d="M 197.023 363.695 C 196.141 355.984 195.082 346.711 194.098 338.113 "/>
<path transform="matrix(1,0,0,-1,0,548)" d="M 197.566 337.641 L 192.953 328.105 L 190.613 338.438 Z M 197.566 337.641 " fill="#c0c0c0"/>
<path transform="matrix(1,0,0,-1,0,548)" stroke-width="2" stroke-linecap="butt" stroke-linejoin="round" fill="none" stroke="#c0c0c0" d="M 197.566 337.641 L 192.953 328.105 L 190.613 338.438 Z M 197.566 337.641 "/>
<path transform="matrix(1,0,0,-1,0,548)" stroke-width="2" stroke-linecap="butt" stroke-linejoin="round" fill="none" stroke="#c0c0c0" d="M 262.766 219.695 C 250.812 210.797 236.078 199.824 223.152 190.199 "/>
<path transform="matrix(1,0,0,-1,0,548)" d="M 225.078 187.27 L 214.969 184.105 L 220.898 192.883 Z M 225.078 187.27 " fill="#c0c0c0"/>
<path transform="matrix(1,0,0,-1,0,548)" stroke-width="2" stroke-linecap="butt" stroke-linejoin="round" fill="none" stroke="#c0c0c0" d="M 225.078 187.27 L 214.969 184.105 L 220.898 192.883 Z M 225.078 187.27 "/>
</g>
</g>
</svg>
